<svg width="120" height="24" viewBox="0 0 120 24" fill="none" xmlns="http://www.w3.org/2000/svg">
<g clip-path="url(#clip0)">
<path d="M55.8309 11.548C55.8309 15.0355 55.8205 18.523 55.8413 22.0104C55.8413 22.5205 55.6956 22.6663 55.1959 22.6455C54.2381 22.6142 53.2908 22.6246 52.333 22.6455C51.9687 22.6559 51.8333 22.5205 51.8541 22.1666C51.875 21.594 51.8646 21.0214 51.8541 20.4489C51.8541 20.3135 51.7605 20.1782 51.7188 20.0429C51.6147 20.1262 51.4794 20.1886 51.4169 20.2927C50.0011 22.3748 47.8982 23.0619 45.5559 23.0515C41.0586 23.0202 37.998 20.199 37.2172 16.0869C36.8008 13.88 36.9465 11.6938 37.9147 9.63253C39.268 6.74887 41.5063 5.09362 44.7231 4.80213C46.7739 4.62515 48.6478 5.06239 50.2926 6.33245C50.5945 6.56148 50.8443 6.86338 51.1254 7.11323C51.2295 7.20692 51.3649 7.27979 51.4898 7.36308C51.5314 7.20692 51.6355 7.05077 51.6355 6.89461C51.6459 4.98952 51.6459 3.07401 51.6459 1.16892C51.6459 0.450606 51.6459 0.450606 52.3434 0.450606C53.3116 0.450606 54.2902 0.471427 55.2583 0.440196C55.7268 0.419375 55.8413 0.585941 55.8413 1.03359C55.8205 4.54187 55.8309 8.03975 55.8309 11.548ZM51.7605 13.9112C51.7605 10.8089 49.5326 8.50821 46.5449 8.47698C43.6924 8.45616 41.1835 10.5382 41.2044 13.9008C41.2252 17.2945 43.7549 19.2829 46.4928 19.2829C49.5014 19.2829 51.75 16.9926 51.7605 13.9112Z" fill="#3560EE"/>
<path d="M119.99 11.6003C119.99 15.0358 119.99 18.4712 119.99 21.9066C119.99 22.6353 119.99 22.6353 119.24 22.6353C118.376 22.6353 117.502 22.6145 116.638 22.6457C116.221 22.6561 116.034 22.5312 116.055 22.094C116.086 21.5214 116.065 20.9488 116.055 20.3763C116.055 20.2617 115.961 20.1472 115.898 20.0223C115.805 20.0848 115.68 20.1368 115.617 20.2201C114.399 22.0836 112.578 22.8227 110.464 22.9893C107.82 23.1975 105.488 22.4687 103.614 20.5428C102.292 19.1895 101.595 17.5238 101.324 15.6812C101.022 13.6616 101.157 11.6628 102.021 9.77853C103.375 6.81159 105.623 5.07306 108.934 4.79198C110.756 4.63583 112.453 4.95855 113.983 5.97876C114.451 6.29107 114.847 6.7283 115.284 7.09267C115.409 7.19677 115.555 7.25923 115.701 7.34251C115.753 7.18636 115.846 7.0302 115.846 6.86364C115.867 6.11409 115.857 5.37496 115.857 4.62542C115.857 3.40741 115.867 2.19981 115.846 0.981796C115.836 0.575793 115.971 0.430048 116.388 0.440458C117.398 0.461279 118.397 0.471689 119.407 0.440458C119.865 0.430048 120 0.586203 120 1.03385C119.979 4.56295 119.99 8.08165 119.99 11.6003ZM110.652 19.2832C113.671 19.2936 115.982 16.9513 115.982 13.8802C115.982 10.83 113.681 8.48765 110.704 8.47724C107.685 8.47724 105.405 10.7779 105.394 13.8282C105.374 16.9513 107.622 19.2832 110.652 19.2832Z" fill="#3560EE"/>
<path d="M0.0104103 11.5378C0.0104103 8.05034 0.0208207 4.56288 0 1.07541C0 0.565307 0.156155 0.419562 0.645441 0.440383C1.6136 0.471614 2.59218 0.471614 3.56034 0.440383C4.06003 0.419562 4.21619 0.565307 4.20578 1.07541C4.18496 4.53165 4.19537 7.97747 4.19537 11.4337C4.19537 11.569 4.18496 11.7148 4.19537 11.8501C4.21619 12.0167 4.26824 12.1728 4.30988 12.329C4.44522 12.2457 4.61178 12.1832 4.7263 12.0687C6.37113 10.3094 8.03678 8.56045 9.65039 6.76987C11.0662 5.20832 11.0454 5.1875 13.117 5.1875C14.0748 5.1875 15.0221 5.1875 15.9799 5.1875C16.1048 5.1875 16.2297 5.24996 16.3546 5.28119C16.2818 5.37488 16.2193 5.47899 16.136 5.56227C13.9186 7.9046 11.7116 10.2573 9.48382 12.5893C9.15069 12.9328 9.11946 13.1514 9.44218 13.5366C11.9094 16.4515 14.3455 19.3872 16.7919 22.3125C16.8543 22.3854 16.896 22.4791 16.948 22.5624C16.8543 22.5832 16.7502 22.6144 16.6565 22.6144C15.0638 22.6144 13.4606 22.6352 11.8678 22.5936C11.6179 22.5832 11.2952 22.3646 11.1287 22.1459C9.07782 19.5434 7.0478 16.9304 5.00737 14.3174C4.80958 14.0675 4.55973 13.8801 4.3307 13.6615C4.28906 13.9738 4.20578 14.2861 4.20578 14.5984C4.19537 17.0136 4.19537 19.4184 4.19537 21.8336C4.19537 22.6144 4.19537 22.6144 3.39377 22.6144C2.45684 22.6144 1.51991 22.5936 0.582979 22.6248C0.124924 22.6665 0 22.5103 0 22.0523C0.0208207 18.544 0.0104103 15.0461 0.0104103 11.5378Z" fill="#3560EE"/>
<path d="M34.9682 13.9429C34.9994 18.8253 31.4286 22.6251 26.4837 22.979C24.3288 23.1352 22.2988 22.8125 20.4249 21.7298C17.7703 20.1995 16.3337 17.8363 16.063 14.8069C15.8236 12.1523 16.4898 9.74749 18.3012 7.72788C19.7795 6.08305 21.6742 5.18776 23.8187 4.86504C26.161 4.51109 28.4409 4.79217 30.5125 5.98935C33.3233 7.61337 34.8016 10.091 34.9473 13.3391C34.9473 13.5264 34.9577 13.7034 34.9682 13.9429ZM20.2271 13.8596C20.2271 16.9619 22.4549 19.273 25.4531 19.2834C28.4825 19.2938 30.7936 16.9827 30.8144 13.9116C30.8353 10.8614 28.5137 8.49825 25.4948 8.48784C22.4862 8.48784 20.2271 10.7885 20.2271 13.8596Z" fill="#3560EE"/>
<path d="M81.0548 16.5551C81.0548 18.3769 81.0444 20.1987 81.0652 22.0205C81.0756 22.489 80.9403 22.666 80.451 22.6452C79.6182 22.6035 78.7854 22.6035 77.9525 22.6452C77.4528 22.666 77.3175 22.4786 77.3487 22.0101C77.38 21.5417 77.3591 21.0732 77.3487 20.6047C77.3487 20.4798 77.2655 20.3549 77.2238 20.23C77.1093 20.2924 76.9636 20.3236 76.8907 20.4173C75.6414 22.2391 73.8092 22.9783 71.7063 23.0199C69.3848 23.0616 67.2715 22.489 65.8453 20.4069C64.7002 18.7309 64.7939 15.2746 67.157 13.661C68.5 12.7449 69.999 12.2765 71.5814 12.1203C73.2367 11.9537 74.9023 11.9329 76.5576 11.86C77.3279 11.8288 77.4112 11.7351 77.3487 10.9543C77.1614 8.88268 75.631 8.01862 73.7884 7.85206C71.9354 7.6959 70.2489 8.18519 68.781 9.34074C68.6665 9.42402 68.3646 9.42402 68.2709 9.34074C67.688 8.7994 67.1362 8.21642 66.5636 7.66467C66.3034 7.41482 66.5012 7.27949 66.6678 7.12333C67.7296 6.16558 68.9684 5.52014 70.353 5.16619C72.5704 4.60403 74.7982 4.49993 77.0156 5.20783C79.3996 5.9782 80.7217 7.6959 80.9403 10.1423C81.1277 12.266 81.086 14.4002 81.1381 16.5343C81.0965 16.5551 81.0756 16.5551 81.0548 16.5551ZM75.3291 14.7229C75.3291 14.7125 75.3291 14.7021 75.3291 14.6812C74.6421 14.7333 73.9446 14.7541 73.2575 14.8374C72.2269 14.9727 71.2067 15.1809 70.3114 15.7639C69.8221 16.0762 69.4889 16.4926 69.3744 17.0756C69.135 18.1999 69.77 19.3034 71.0193 19.6574C71.748 19.8656 72.56 19.9176 73.3199 19.876C74.8086 19.7927 76.0266 19.1889 76.6929 17.7419C77.0885 16.8778 77.0885 15.9617 77.0364 15.0352C77.026 14.9207 76.8178 14.7333 76.6825 14.7229C76.2348 14.7021 75.7768 14.7229 75.3291 14.7229Z" fill="#3560EE"/>
<path d="M83.2618 13.9215C83.2618 11.2461 83.2618 8.58101 83.2618 5.90555C83.2618 5.21847 83.2722 5.19765 83.9592 5.19765C84.8441 5.19765 85.729 5.21847 86.6139 5.18724C87.0824 5.17683 87.2281 5.3538 87.2073 5.80145C87.1761 6.32197 87.1865 6.84248 87.2073 7.363C87.2177 7.55039 87.3114 7.73777 87.3634 7.92516C87.4884 7.78982 87.6341 7.67531 87.7278 7.52957C88.5502 6.21786 89.6121 5.20806 91.184 4.90616C93.8283 4.38564 96.7536 4.99985 98.2214 7.5608C98.9085 8.74758 99.1167 10.0697 99.1272 11.4126C99.1584 14.973 99.1272 18.5229 99.148 22.0832C99.148 22.51 99.023 22.6558 98.5858 22.6454C97.6176 22.6142 96.6391 22.635 95.6709 22.635C94.9526 22.635 94.9526 22.635 94.9526 21.9375C94.9526 19.0434 94.9734 16.1389 94.9318 13.2448C94.9214 12.3704 94.786 11.4751 94.5362 10.6423C94.0469 9.03906 92.6727 8.25829 91.0071 8.51855C88.8521 8.85168 87.5196 10.3508 87.4884 12.5474C87.4467 15.6809 87.4259 18.8248 87.4259 21.9583C87.4259 22.4684 87.301 22.6662 86.7596 22.6454C85.7915 22.6037 84.8129 22.6142 83.8447 22.6454C83.3763 22.6558 83.2513 22.4788 83.2513 22.0416C83.2722 19.3349 83.2618 16.6282 83.2618 13.9215Z" fill="#3560EE"/>
<path d="M63.1282 11.5375C63.1282 15.0249 63.1178 18.502 63.1386 21.9895C63.1386 22.4787 63.0241 22.6661 62.5035 22.6453C61.4833 22.6037 60.4631 22.6245 59.4325 22.6453C59.0369 22.6557 58.9224 22.51 58.9224 22.1352C58.9328 15.077 58.9328 8.01878 58.9224 0.970977C58.9224 0.533743 59.0889 0.44005 59.4741 0.45046C60.4943 0.471281 61.525 0.481691 62.5452 0.45046C63.0032 0.44005 63.1386 0.585795 63.1386 1.04385C63.1178 4.53131 63.1282 8.0396 63.1282 11.5375Z" fill="#3560EE"/>
</g>
<defs>
<clipPath id="clip0">
<rect width="120" height="22.5904" fill="white" transform="translate(0 0.44043)"/>
</clipPath>
</defs>
</svg>
